<svg width="109" height="103" viewBox="0 0 109 103" fill="none" xmlns="http://www.w3.org/2000/svg">
<path d="M94.4167 32.3333C94.4167 15.5416 90.5 11.3333 74.75 11.3333H43.25C27.5 11.3333 23.5833 15.5416 23.5833 32.3333V79.25C23.5833 90.3333 29.6667 92.9583 37.0417 85.0416L37.0833 85C40.5 81.375 45.7083 81.6666 48.6667 85.625L52.875 91.25C56.25 95.7083 61.7083 95.7083 65.0833 91.25L69.2917 85.625C72.2917 81.625 77.5 81.3333 80.9167 85C88.3334 92.9166 94.375 90.2916 94.375 79.2083V48.8333M42.3333 32.1666H75.6667H42.3333ZM46.5 48.8333H71.5H46.5Z" fill="#E5D8F6"/>
<path d="M85.4167 29.3333C85.4167 12.5416 81.5 8.33331 65.75 8.33331H34.25C18.5 8.33331 14.5833 12.5416 14.5833 29.3333V76.25C14.5833 87.3333 20.6667 89.9583 28.0417 82.0416L28.0833 82C31.5 78.375 36.7083 78.6666 39.6667 82.625L43.875 88.25C47.25 92.7083 52.7083 92.7083 56.0833 88.25L60.2917 82.625C63.2917 78.625 68.5 78.3333 71.9167 82C79.3333 89.9166 85.375 87.2916 85.375 76.2083V45.8333M33.3333 29.1666H66.6667M37.5 45.8333H62.5" stroke="#050505" stroke-width="1.5" stroke-linecap="round" stroke-linejoin="round"/>
</svg>
