<svg width="109" height="100" viewBox="0 0 109 100" fill="none" xmlns="http://www.w3.org/2000/svg">
<path d="M40.25 31.9584V27.9167C40.25 18.5417 47.7917 9.33338 57.1667 8.45838C59.7716 8.20245 62.4012 8.49474 64.8863 9.31645C67.3714 10.1382 69.657 11.4711 71.5958 13.2294C73.5347 14.9877 75.084 17.1325 76.1439 19.5258C77.2038 21.919 77.7509 24.5076 77.75 27.125V32.875M24.875 69L25.8333 76.7917C26.75 84.9584 29.75 91.6667 46.5 91.6667H71.5C88.25 91.6667 91.25 84.9584 92.125 76.7917L95.25 51.7917C96.375 41.625 93.4584 33.3334 75.6667 33.3334H42.3333C24.5417 33.3334 21.625 41.625 22.75 51.7917" fill="#E5D8F6"/>
<path d="M31.25 31.9584V27.9167C31.25 18.5417 38.7917 9.33338 48.1667 8.45838C50.7716 8.20245 53.4012 8.49474 55.8863 9.31645C58.3714 10.1382 60.657 11.4711 62.5958 13.2294C64.5347 14.9877 66.084 17.1325 67.1439 19.5258C68.2038 21.919 68.7509 24.5076 68.75 27.125V32.875M15.875 69L16.8333 76.7917C17.75 84.9584 20.75 91.6667 37.5 91.6667H62.5C79.25 91.6667 82.25 84.9584 83.125 76.7917L86.25 51.7917C87.375 41.625 84.4583 33.3334 66.6667 33.3334H33.3333C15.5417 33.3334 12.625 41.625 13.75 51.7917" stroke="#050505" stroke-width="1.5" stroke-miterlimit="10" stroke-linecap="round" stroke-linejoin="round"/>
<path d="M64.5625 50H64.6M35.3958 50H35.4292" stroke="#050505" stroke-width="2" stroke-linecap="round" stroke-linejoin="round"/>
</svg>
