<svg width="40" height="40" viewBox="0 0 40 40" fill="none" xmlns="http://www.w3.org/2000/svg">
<rect width="40" height="40" rx="20" fill="#E5D8F6"/>
<path d="M20 14.441V17.771M28.59 23.17C29.32 24.39 28.74 25.97 27.39 26.42C22.6087 28.01 17.4413 28.01 12.66 26.42C11.22 25.94 10.67 24.48 11.46 23.17L12.73 21.05C13.08 20.47 13.36 19.44 13.36 18.77V16.67C13.3587 15.7946 13.53 14.9274 13.8641 14.1183C14.1982 13.3091 14.6886 12.5737 15.3071 11.9542C15.9257 11.3347 16.6603 10.8432 17.469 10.5079C18.2777 10.1726 19.1445 10 20.02 10C23.68 10 26.68 13 26.68 16.66V18.76C26.68 18.94 26.7 19.14 26.73 19.35" stroke="#9747FF" stroke-width="1.5" stroke-miterlimit="10" stroke-linecap="round"/>
<path d="M23.33 26.8199C23.33 28.6499 21.83 30.1499 20 30.1499C19.09 30.1499 18.25 29.7699 17.65 29.1699C17.05 28.5699 16.67 27.7299 16.67 26.8199" stroke="#9747FF" stroke-width="1.5" stroke-miterlimit="10"/>
<circle cx="27" cy="13" r="4" fill="#FB6565"/>
</svg>
