<svg width="24" height="24" viewBox="0 0 24 24" fill="none" xmlns="http://www.w3.org/2000/svg">
<path d="M11.9999 6.441V9.771M20.5899 15.17C21.3199 16.39 20.7399 17.97 19.3899 18.42C14.6086 20.01 9.44121 20.01 4.65993 18.42C3.21993 17.94 2.66993 16.48 3.45993 15.17L4.72993 13.05C5.07993 12.47 5.35993 11.44 5.35993 10.77V8.67C5.35862 7.79456 5.52991 6.92744 5.86402 6.11826C6.19813 5.30907 6.68849 4.5737 7.30706 3.9542C7.92563 3.33471 8.66027 2.84324 9.46895 2.50792C10.2776 2.1726 11.1445 2 12.0199 2C15.6799 2 18.6799 5 18.6799 8.66V10.76C18.6799 10.94 18.6999 11.14 18.7299 11.35" stroke="#050505" stroke-opacity="0.5" stroke-width="1.5" stroke-miterlimit="10" stroke-linecap="round"/>
<path d="M15.3299 18.82C15.3299 20.65 13.8299 22.15 11.9999 22.15C11.0899 22.15 10.2499 21.77 9.64992 21.17C9.04992 20.57 8.66992 19.73 8.66992 18.82" stroke="#050505" stroke-opacity="0.5" stroke-width="1.5" stroke-miterlimit="10"/>
<circle cx="19" cy="5" r="4" fill="#FB6565"/>
</svg>
