<svg width="16" height="22" viewBox="0 0 16 22" fill="none" xmlns="http://www.w3.org/2000/svg">
<path d="M11.68 2.96C12.16 3.67 12.4401 4.52 12.4401 5.44C12.4301 7.84 10.54 9.79 8.16005 9.87C8.06005 9.86 7.94005 9.86 7.83005 9.87C5.62005 9.8 3.83005 8.11 3.59005 5.95C3.30005 3.38 5.41005 1 7.99005 1M2.99005 13.56C0.570049 15.18 0.570049 17.82 2.99005 19.43C5.74005 21.27 10.25 21.27 13 19.43C15.42 17.81 15.42 15.17 13 13.56C10.27 11.73 5.76005 11.73 2.99005 13.56Z" stroke="#050505" stroke-opacity="0.5" stroke-width="1.5" stroke-linecap="round" stroke-linejoin="round"/>
</svg>
